<svg width="13" height="10" viewBox="0 0 13 10" fill="none" xmlns="http://www.w3.org/2000/svg">
<path fill-rule="evenodd" clip-rule="evenodd" d="M3.30145 0.548957C3.16588 0.624961 0.113965 3.79599 0.0505608 3.92674C-0.0250303 4.08252 -0.0139948 4.44611 0.0711764 4.60767C0.166232 4.78788 3.05877 7.80549 3.25068 7.92461C3.37183 7.9998 3.44461 8.01883 3.60612 8.01767C3.91261 8.01545 4.14382 7.86831 4.2792 7.58932C4.35072 7.44186 4.3511 7.08225 4.27984 6.93363C4.25012 6.87158 3.83499 6.41108 3.35738 5.91032L2.48901 4.99978L6.36504 5.01646C10.5764 5.03454 10.5216 5.03193 10.847 5.23048C11.0218 5.33718 11.279 5.61959 11.3678 5.80231C11.4982 6.07068 11.5181 6.28762 11.54 7.6845C11.5639 9.20726 11.5565 9.16295 11.8268 9.39051C11.9513 9.49531 11.9703 9.5 12.2693 9.5C12.5517 9.5 12.595 9.49087 12.7191 9.40538C12.8018 9.34838 12.8849 9.24936 12.9282 9.15629C12.9975 9.00731 13 8.95493 13 7.68126C13 5.96866 12.9622 5.64973 12.6929 5.08848C12.4278 4.53618 12.0375 4.1361 11.4936 3.85926C11.1098 3.66389 10.7821 3.57164 10.3088 3.52567C10.0808 3.50353 8.49253 3.4895 6.21295 3.4895L2.48948 3.48947L3.35765 2.58172C3.83513 2.08247 4.25171 1.62 4.28339 1.55404C4.37252 1.36843 4.34243 1.00079 4.22361 0.823608C4.07138 0.596653 3.92043 0.512964 3.64302 0.501718C3.47196 0.494809 3.37383 0.508381 3.30145 0.548957Z" fill="black"/>
</svg>
