<?xml version="1.0" standalone="no"?>
<!DOCTYPE svg PUBLIC "-//W3C//DTD SVG 20010904//EN"
 "http://www.w3.org/TR/2001/REC-SVG-20010904/DTD/svg10.dtd">
<svg version="1.0" xmlns="http://www.w3.org/2000/svg"
 width="700.000000pt" height="700.000000pt" viewBox="0 0 700.000000 700.000000"
 preserveAspectRatio="xMidYMid meet">
<metadata>
Created by potrace 1.14, written by Peter Selinger 2001-2017
</metadata>
<g transform="translate(0.000000,700.000000) scale(0.100000,-0.100000)"
fill="#000000" stroke="none">
<path d="M1200 6993 c-141 -15 -320 -68 -455 -136 -368 -184 -624 -515 -717
-928 l-23 -104 0 -2325 0 -2325 23 -104 c127 -566 564 -974 1131 -1056 94 -14
376 -15 2391 -13 l2285 4 97 22 c306 70 578 235 758 459 144 178 231 358 282
581 l22 97 4 2285 c3 2496 5 2381 -54 2588 -34 118 -129 310 -205 412 -193
262 -457 435 -789 518 l-105 27 -2305 1 c-1268 0 -2321 -1 -2340 -3z m2704
-1582 c668 -119 1146 -509 1340 -1092 40 -119 79 -300 68 -311 -5 -5 -218 -7
-475 -6 l-468 3 -33 77 c-101 232 -285 388 -531 450 -120 30 -393 33 -495 5
-282 -77 -467 -228 -590 -481 -177 -364 -155 -842 54 -1166 132 -203 295 -327
523 -397 79 -24 104 -27 248 -27 134 0 175 3 250 22 180 45 345 149 441 276
52 68 119 199 136 264 l10 42 474 0 474 0 0 -25 c0 -14 -11 -76 -24 -138 -149
-703 -645 -1166 -1394 -1298 -170 -30 -465 -37 -639 -15 -845 108 -1467 669
-1628 1468 -64 320 -56 674 21 979 149 592 542 1035 1123 1263 121 48 325 100
466 120 160 22 490 16 649 -13z"/>
</g>
</svg>
